0
SECTION
2
HEADER
9
$INSUNITS
70
4
9
$ACADVER
1
AC1014
9
$HANDSEED
5
FFFF
0
ENDSEC
0
SECTION
2
TABLES
0
TABLE
2
VPORT
5
8
100
AcDbSymbolTable
0
ENDTAB
0
TABLE
2
LTYPE
5
5
100
AcDbSymbolTable
0
LTYPE
5
14
100
AcDbSymbolTableRecord
100
AcDbLinetypeTableRecord
2
BYBLOCK
70
0
0
LTYPE
5
15
100
AcDbSymbolTableRecord
100
AcDbLinetypeTableRecord
2
BYLAYER
70
0
0
ENDTAB
0
TABLE
2
LAYER
5
2
100
AcDbSymbolTable
70
2
0
LAYER
5
50
100
AcDbSymbolTableRecord
100
AcDbLayerTableRecord
2
0
70
0
6
CONTINUOUS
0
ENDTAB
0
TABLE
2
STYLE
5
3
100
AcDbSymbolTable
70
1
0
STYLE
5
11
100
AcDbSymbolTableRecord
100
AcDbTextStyleTableRecord
2
STANDARD
70
0
0
ENDTAB
0
TABLE
2
VIEW
5
6
100
AcDbSymbolTable
70
0
0
ENDTAB
0
TABLE
2
UCS
5
7
100
AcDbSymbolTable
70
0
0
ENDTAB
0
TABLE
2
APPID
5
9
100
AcDbSymbolTable
70
2
0
APPID
5
12
100
AcDbSymbolTableRecord
100
AcDbRegAppTableRecord
2
ACAD
70
0
0
ENDTAB
0
TABLE
2
DIMSTYLE
5
A
100
AcDbSymbolTable
70
1
0
ENDTAB
0
TABLE
2
BLOCK_RECORD
5
1
100
AcDbSymbolTable
70
1
0
BLOCK_RECORD
5
1F
100
AcDbSymbolTableRecord
100
AcDbBlockTableRecord
2
*MODEL_SPACE
0
BLOCK_RECORD
5
1B
100
AcDbSymbolTableRecord
100
AcDbBlockTableRecord
2
*PAPER_SPACE
0
ENDTAB
0
ENDSEC
0
SECTION
2
BLOCKS
0
BLOCK
5
20
100
AcDbEntity
100
AcDbBlockBegin
2
*MODEL_SPACE
0
ENDBLK
5
21
100
AcDbEntity
100
AcDbBlockEnd
0
BLOCK
5
1C
100
AcDbEntity
100
AcDbBlockBegin
2
*PAPER_SPACE
0
ENDBLK
5
1D
100
AcDbEntity
100
AcDbBlockEnd
0
ENDSEC
0
SECTION
2
ENTITIES
0
LWPOLYLINE
5
100
100
AcDbEntity
8
0
100
AcDbPolyline
90
4
70
1
43
0.0
10
-107.80000000000017
20
1.5999999999996373
10
-107.80000000000017
20
-1.6000000000003634
10
-109.71539534011315
20
-1.60000000000034
42
-13.865377912429466
10
-109.71539534011316
20
1.5999999999996373
0
LWPOLYLINE
5
101
100
AcDbEntity
8
0
100
AcDbPolyline
90
4
70
1
43
0.0
10
-10.949999999999989
20
1.5999999999888241
10
-10.949999999999989
20
-1.5999999999858368
10
-11.99500142775336
20
-1.5999999999858709
42
-11.034374107739245
10
-11.995001427753564
20
1.5999999999894268
0
LWPOLYLINE
5
102
100
AcDbEntity
8
0
100
AcDbPolyline
90
4
70
1
43
0.0
10
-60.949999999999989
20
1.5999999999888241
10
-60.949999999999989
20
-1.5999999999858368
10
-61.995001427753358
20
-1.5999999999858707
42
-11.034374107739245
10
-61.995001427753564
20
1.5999999999894272
0
LWPOLYLINE
5
103
100
AcDbEntity
8
0
100
AcDbPolyline
90
4
70
1
43
0.0
10
-174.80960026078779
20
43.311566983584299
10
-166.69039973921224
20
43.311566983584306
42
-0.61429269642221396
10
-166.44743509802865
20
26.811566983584264
10
-175.05256490197158
20
26.811566983584395
42
-0.6142926964222023
0
LWPOLYLINE
5
104
100
AcDbEntity
8
0
100
AcDbPolyline
90
4
70
1
43
0.0
10
-174.80960026078779
20
-26.688433016415701
10
-166.69039973921224
20
-26.688433016415697
42
-0.61429269642221385
10
-166.44743509802865
20
-43.188433016415722
10
-175.05256490197158
20
-43.188433016415608
42
-0.6142926964222023
0
LWPOLYLINE
5
105
100
AcDbEntity
8
0
100
AcDbPolyline
90
4
70
1
43
0.0
10
-174.80960026078779
20
8.3115669835842958
10
-166.69039973921224
20
8.3115669835843082
42
-0.61429269642221396
10
-166.44743509802865
20
-8.1884330164157344
10
-175.05256490197158
20
-8.1884330164156065
42
-0.6142926964222023
0
CIRCLE
5
106
100
AcDbEntity
8
0
100
AcDbCircle
10
195.49999999999997
20
0.064399730492643747
30
0
40
3.0000000000000071
210
0
220
0
230
1
0
CIRCLE
5
107
100
AcDbEntity
8
0
100
AcDbCircle
10
-159.99999999999997
20
-55.750000000000028
30
0
40
3.0000000000000004
210
0
220
0
230
1
0
CIRCLE
5
108
100
AcDbEntity
8
0
100
AcDbCircle
10
-79.999999999999972
20
-55.750000000000028
30
0
40
3.0000000000000004
210
0
220
0
230
1
0
CIRCLE
5
109
100
AcDbEntity
8
0
100
AcDbCircle
10
80.000000000000028
20
-55.750000000000028
30
0
40
3.0000000000000004
210
0
220
0
230
1
0
CIRCLE
5
110
100
AcDbEntity
8
0
100
AcDbCircle
10
160.00000000000003
20
-55.750000000000028
30
0
40
3.0000000000000004
210
0
220
0
230
1
0
CIRCLE
5
111
100
AcDbEntity
8
0
100
AcDbCircle
10
3.6219712595106226e-14
20
-55.750000000000028
30
0
40
3.0000000000000004
210
0
220
0
230
1
0
CIRCLE
5
112
100
AcDbEntity
8
0
100
AcDbCircle
10
-159.99999999999997
20
55.750000000000028
30
0
40
3.0000000000000004
210
0
220
0
230
1
0
CIRCLE
5
113
100
AcDbEntity
8
0
100
AcDbCircle
10
-79.999999999999972
20
55.750000000000028
30
0
40
3.0000000000000004
210
0
220
0
230
1
0
CIRCLE
5
114
100
AcDbEntity
8
0
100
AcDbCircle
10
80.000000000000028
20
55.750000000000028
30
0
40
3.0000000000000004
210
0
220
0
230
1
0
CIRCLE
5
115
100
AcDbEntity
8
0
100
AcDbCircle
10
160.00000000000003
20
55.750000000000028
30
0
40
3.0000000000000004
210
0
220
0
230
1
0
CIRCLE
5
116
100
AcDbEntity
8
0
100
AcDbCircle
10
3.6219712595106226e-14
20
55.750000000000028
30
0
40
3.0000000000000004
210
0
220
0
230
1
0
CIRCLE
5
117
100
AcDbEntity
8
0
100
AcDbCircle
10
-195.49999999999997
20
0.064399730492643747
30
0
40
3.0000000000000071
210
0
220
0
230
1
0
LWPOLYLINE
5
118
100
AcDbEntity
8
0
100
AcDbPolyline
90
8
70
1
43
0.0
10
180
20
71.500000000000028
10
-180
20
71.500000000000043
42
0.4142135623730947
10
-209.99999999999997
20
41.500000000000021
10
-209.99999999999994
20
-41.500000000000021
42
0.41421356237309503
10
-179.99999999999997
20
-71.5
10
180.00000000000003
20
-71.5
42
0.41421356237309498
10
210.00000000000003
20
-41.500000000000014
10
210.00000000000003
20
41.500000000000028
42
0.41421356237309531
0
ENDSEC
0
SECTION
2
OBJECTS
0
DICTIONARY
5
C
100
AcDbDictionary
3
ACAD_GROUP
350
D
3
ACAD_MLINESTYLE
350
17
0
DICTIONARY
5
D
100
AcDbDictionary
0
DICTIONARY
5
1A
330
C
100
AcDbDictionary
0
DICTIONARY
5
17
100
AcDbDictionary
0
ENDSEC
0
EOF
