0
SECTION
2
HEADER
9
$INSUNITS
70
4
9
$ACADVER
1
AC1014
9
$HANDSEED
5
FFFF
0
ENDSEC
0
SECTION
2
TABLES
0
TABLE
2
VPORT
5
8
100
AcDbSymbolTable
0
ENDTAB
0
TABLE
2
LTYPE
5
5
100
AcDbSymbolTable
0
LTYPE
5
14
100
AcDbSymbolTableRecord
100
AcDbLinetypeTableRecord
2
BYBLOCK
70
0
0
LTYPE
5
15
100
AcDbSymbolTableRecord
100
AcDbLinetypeTableRecord
2
BYLAYER
70
0
0
ENDTAB
0
TABLE
2
LAYER
5
2
100
AcDbSymbolTable
70
2
0
LAYER
5
50
100
AcDbSymbolTableRecord
100
AcDbLayerTableRecord
2
0
70
0
6
CONTINUOUS
0
ENDTAB
0
TABLE
2
STYLE
5
3
100
AcDbSymbolTable
70
1
0
STYLE
5
11
100
AcDbSymbolTableRecord
100
AcDbTextStyleTableRecord
2
STANDARD
70
0
0
ENDTAB
0
TABLE
2
VIEW
5
6
100
AcDbSymbolTable
70
0
0
ENDTAB
0
TABLE
2
UCS
5
7
100
AcDbSymbolTable
70
0
0
ENDTAB
0
TABLE
2
APPID
5
9
100
AcDbSymbolTable
70
2
0
APPID
5
12
100
AcDbSymbolTableRecord
100
AcDbRegAppTableRecord
2
ACAD
70
0
0
ENDTAB
0
TABLE
2
DIMSTYLE
5
A
100
AcDbSymbolTable
70
1
0
ENDTAB
0
TABLE
2
BLOCK_RECORD
5
1
100
AcDbSymbolTable
70
1
0
BLOCK_RECORD
5
1F
100
AcDbSymbolTableRecord
100
AcDbBlockTableRecord
2
*MODEL_SPACE
0
BLOCK_RECORD
5
1B
100
AcDbSymbolTableRecord
100
AcDbBlockTableRecord
2
*PAPER_SPACE
0
ENDTAB
0
ENDSEC
0
SECTION
2
BLOCKS
0
BLOCK
5
20
100
AcDbEntity
100
AcDbBlockBegin
2
*MODEL_SPACE
0
ENDBLK
5
21
100
AcDbEntity
100
AcDbBlockEnd
0
BLOCK
5
1C
100
AcDbEntity
100
AcDbBlockBegin
2
*PAPER_SPACE
0
ENDBLK
5
1D
100
AcDbEntity
100
AcDbBlockEnd
0
ENDSEC
0
SECTION
2
ENTITIES
0
LWPOLYLINE
5
100
100
AcDbEntity
8
0
100
AcDbPolyline
90
4
70
1
43
0.0
10
185.66285462511604
20
1.6000000000013581
10
185.66285462511604
20
-1.599999999998643
10
183.74745928500312
20
-1.5999999999986394
42
-13.865377912429381
10
183.74745928500306
20
1.6000000000013586
0
LWPOLYLINE
5
101
100
AcDbEntity
8
0
100
AcDbPolyline
90
4
70
1
43
0.0
10
-50.199999999999996
20
1.5999999999699077
10
-50.200000000000031
20
-1.5999999999716312
10
-51.245001427750154
20
-1.5999999999716317
42
-11.034374107897367
10
-51.245001427748313
20
1.5999999999585801
0
LWPOLYLINE
5
102
100
AcDbEntity
8
0
100
AcDbPolyline
90
4
70
1
43
0.0
10
-100.19999999999999
20
1.5999999999699077
10
-100.20000000000003
20
-1.5999999999716312
10
-101.24500142775014
20
-1.5999999999716317
42
-11.034374107897367
10
-101.24500142774832
20
1.5999999999585801
0
CIRCLE
5
103
100
AcDbEntity
8
0
100
AcDbCircle
10
195.49999999999997
20
0.064399730492643747
30
0
40
3.0000000000000071
210
0
220
0
230
1
0
CIRCLE
5
104
100
AcDbEntity
8
0
100
AcDbCircle
10
-159.99999999999997
20
-55.750000000000028
30
0
40
3.0000000000000004
210
0
220
0
230
1
0
CIRCLE
5
105
100
AcDbEntity
8
0
100
AcDbCircle
10
-79.999999999999972
20
-55.750000000000028
30
0
40
3.0000000000000004
210
0
220
0
230
1
0
CIRCLE
5
106
100
AcDbEntity
8
0
100
AcDbCircle
10
80.000000000000028
20
-55.750000000000028
30
0
40
3.0000000000000004
210
0
220
0
230
1
0
CIRCLE
5
107
100
AcDbEntity
8
0
100
AcDbCircle
10
160.00000000000003
20
-55.750000000000028
30
0
40
3.0000000000000004
210
0
220
0
230
1
0
CIRCLE
5
108
100
AcDbEntity
8
0
100
AcDbCircle
10
3.6219712595106226e-14
20
-55.750000000000028
30
0
40
3.0000000000000004
210
0
220
0
230
1
0
CIRCLE
5
109
100
AcDbEntity
8
0
100
AcDbCircle
10
-159.99999999999997
20
55.750000000000028
30
0
40
3.0000000000000004
210
0
220
0
230
1
0
CIRCLE
5
110
100
AcDbEntity
8
0
100
AcDbCircle
10
-79.999999999999972
20
55.750000000000028
30
0
40
3.0000000000000004
210
0
220
0
230
1
0
CIRCLE
5
111
100
AcDbEntity
8
0
100
AcDbCircle
10
80.000000000000028
20
55.750000000000028
30
0
40
3.0000000000000004
210
0
220
0
230
1
0
CIRCLE
5
112
100
AcDbEntity
8
0
100
AcDbCircle
10
160.00000000000003
20
55.750000000000028
30
0
40
3.0000000000000004
210
0
220
0
230
1
0
CIRCLE
5
113
100
AcDbEntity
8
0
100
AcDbCircle
10
3.6219712595106226e-14
20
55.750000000000028
30
0
40
3.0000000000000004
210
0
220
0
230
1
0
CIRCLE
5
114
100
AcDbEntity
8
0
100
AcDbCircle
10
-195.49999999999997
20
0.064399730492643747
30
0
40
3.0000000000000071
210
0
220
0
230
1
0
LWPOLYLINE
5
115
100
AcDbEntity
8
0
100
AcDbPolyline
90
8
70
1
43
0.0
10
180
20
71.500000000000028
10
-180
20
71.500000000000043
42
0.4142135623730947
10
-209.99999999999997
20
41.500000000000021
10
-209.99999999999994
20
-41.500000000000021
42
0.41421356237309503
10
-179.99999999999997
20
-71.5
10
180.00000000000003
20
-71.5
42
0.41421356237309498
10
210.00000000000003
20
-41.500000000000014
10
210.00000000000003
20
41.500000000000028
42
0.41421356237309531
0
LWPOLYLINE
5
116
100
AcDbEntity
8
0
100
AcDbPolyline
90
4
70
1
43
0.0
10
-151.72460614905935
20
39.132838807863266
10
-151.72460614906066
20
30.867161192126179
42
-0.61417046367218164
10
-168.22460614905933
20
30.766992358512955
10
-168.22460614905933
20
39.233007641479134
42
-0.61417046367228667
0
LWPOLYLINE
5
117
100
AcDbEntity
8
0
100
AcDbPolyline
90
4
70
1
43
0.0
10
-151.72460614905935
20
-30.867161192136734
10
-151.72460614906066
20
-39.132838807873817
42
-0.61417046367218164
10
-168.22460614905933
20
-39.233007641487049
10
-168.22460614905933
20
-30.766992358520866
42
-0.61417046367228667
0
LWPOLYLINE
5
118
100
AcDbEntity
8
0
100
AcDbPolyline
90
4
70
1
43
0.0
10
-151.72460614905935
20
4.1328388078632656
10
-151.72460614906066
20
-4.132838807873819
42
-0.61417046367218175
10
-168.22460614905933
20
-4.2330076414870454
10
-168.22460614905933
20
4.2330076414791282
42
-0.61417046367228667
0
ENDSEC
0
SECTION
2
OBJECTS
0
DICTIONARY
5
C
100
AcDbDictionary
3
ACAD_GROUP
350
D
3
ACAD_MLINESTYLE
350
17
0
DICTIONARY
5
D
100
AcDbDictionary
0
DICTIONARY
5
1A
330
C
100
AcDbDictionary
0
DICTIONARY
5
17
100
AcDbDictionary
0
ENDSEC
0
EOF
