0
SECTION
2
HEADER
9
$INSUNITS
70
4
9
$ACADVER
1
AC1014
9
$HANDSEED
5
FFFF
0
ENDSEC
0
SECTION
2
TABLES
0
TABLE
2
VPORT
5
8
100
AcDbSymbolTable
0
ENDTAB
0
TABLE
2
LTYPE
5
5
100
AcDbSymbolTable
0
LTYPE
5
14
100
AcDbSymbolTableRecord
100
AcDbLinetypeTableRecord
2
BYBLOCK
70
0
0
LTYPE
5
15
100
AcDbSymbolTableRecord
100
AcDbLinetypeTableRecord
2
BYLAYER
70
0
0
ENDTAB
0
TABLE
2
LAYER
5
2
100
AcDbSymbolTable
70
2
0
LAYER
5
50
100
AcDbSymbolTableRecord
100
AcDbLayerTableRecord
2
0
70
0
6
CONTINUOUS
0
ENDTAB
0
TABLE
2
STYLE
5
3
100
AcDbSymbolTable
70
1
0
STYLE
5
11
100
AcDbSymbolTableRecord
100
AcDbTextStyleTableRecord
2
STANDARD
70
0
0
ENDTAB
0
TABLE
2
VIEW
5
6
100
AcDbSymbolTable
70
0
0
ENDTAB
0
TABLE
2
UCS
5
7
100
AcDbSymbolTable
70
0
0
ENDTAB
0
TABLE
2
APPID
5
9
100
AcDbSymbolTable
70
2
0
APPID
5
12
100
AcDbSymbolTableRecord
100
AcDbRegAppTableRecord
2
ACAD
70
0
0
ENDTAB
0
TABLE
2
DIMSTYLE
5
A
100
AcDbSymbolTable
70
1
0
ENDTAB
0
TABLE
2
BLOCK_RECORD
5
1
100
AcDbSymbolTable
70
1
0
BLOCK_RECORD
5
1F
100
AcDbSymbolTableRecord
100
AcDbBlockTableRecord
2
*MODEL_SPACE
0
BLOCK_RECORD
5
1B
100
AcDbSymbolTableRecord
100
AcDbBlockTableRecord
2
*PAPER_SPACE
0
ENDTAB
0
ENDSEC
0
SECTION
2
BLOCKS
0
BLOCK
5
20
100
AcDbEntity
100
AcDbBlockBegin
2
*MODEL_SPACE
0
ENDBLK
5
21
100
AcDbEntity
100
AcDbBlockEnd
0
BLOCK
5
1C
100
AcDbEntity
100
AcDbBlockBegin
2
*PAPER_SPACE
0
ENDBLK
5
1D
100
AcDbEntity
100
AcDbBlockEnd
0
ENDSEC
0
SECTION
2
ENTITIES
0
LWPOLYLINE
5
100
100
AcDbEntity
8
0
100
AcDbPolyline
90
4
70
1
43
0.0
10
42.949999999999982
20
1.6000000000013581
10
42.949999999999982
20
-1.599999999998643
10
41.03460465988703
20
-1.5999999999986487
42
-13.865377912429338
10
41.034604659887002
20
1.600000000001359
0
LWPOLYLINE
5
101
100
AcDbEntity
8
0
100
AcDbPolyline
90
4
70
1
43
0.0
10
-10.199999999686757
20
1.5999999999985182
10
-10.199999999688625
20
-1.6000000000015024
10
-11.245001428086391
20
-1.6000000000009009
42
-11.034374107243865
10
-11.245001428086013
20
1.5999999999988157
0
CIRCLE
5
102
100
AcDbEntity
8
0
100
AcDbCircle
10
195.49999999999997
20
0.064399730492643747
30
0
40
3.0000000000000071
210
0
220
0
230
1
0
CIRCLE
5
103
100
AcDbEntity
8
0
100
AcDbCircle
10
-159.99999999999997
20
-55.750000000000028
30
0
40
3.0000000000000004
210
0
220
0
230
1
0
CIRCLE
5
104
100
AcDbEntity
8
0
100
AcDbCircle
10
-79.999999999999972
20
-55.750000000000028
30
0
40
3.0000000000000004
210
0
220
0
230
1
0
CIRCLE
5
105
100
AcDbEntity
8
0
100
AcDbCircle
10
80.000000000000028
20
-55.750000000000028
30
0
40
3.0000000000000004
210
0
220
0
230
1
0
CIRCLE
5
106
100
AcDbEntity
8
0
100
AcDbCircle
10
160.00000000000003
20
-55.750000000000028
30
0
40
3.0000000000000004
210
0
220
0
230
1
0
CIRCLE
5
107
100
AcDbEntity
8
0
100
AcDbCircle
10
3.6219712595106226e-14
20
-55.750000000000028
30
0
40
3.0000000000000004
210
0
220
0
230
1
0
CIRCLE
5
108
100
AcDbEntity
8
0
100
AcDbCircle
10
-79.999999999999972
20
55.750000000000028
30
0
40
3.0000000000000004
210
0
220
0
230
1
0
CIRCLE
5
109
100
AcDbEntity
8
0
100
AcDbCircle
10
80.000000000000028
20
55.750000000000028
30
0
40
3.0000000000000004
210
0
220
0
230
1
0
CIRCLE
5
110
100
AcDbEntity
8
0
100
AcDbCircle
10
160.00000000000003
20
55.750000000000028
30
0
40
3.0000000000000004
210
0
220
0
230
1
0
CIRCLE
5
111
100
AcDbEntity
8
0
100
AcDbCircle
10
3.6219712595106226e-14
20
55.750000000000028
30
0
40
3.0000000000000004
210
0
220
0
230
1
0
CIRCLE
5
112
100
AcDbEntity
8
0
100
AcDbCircle
10
-195.49999999999997
20
0.064399730492643747
30
0
40
3.0000000000000071
210
0
220
0
230
1
0
LINE
5
113
100
AcDbEntity
8
0
100
AcDbLine
10
-180
20
71.500000000000043
30
0
11
180
21
71.500000000000028
31
0
0
ARC
5
114
100
AcDbEntity
8
0
100
AcDbCircle
10
180.00000000000003
20
41.500000000000021
30
0
40
30
210
0
220
-0
230
1
100
AcDbArc
50
0
51
90
0
LINE
5
115
100
AcDbEntity
8
0
100
AcDbLine
10
210.00000000000003
20
41.500000000000028
30
0
11
210.00000000000003
21
-41.500000000000014
31
0
0
ARC
5
116
100
AcDbEntity
8
0
100
AcDbCircle
10
180.00000000000003
20
-41.5
30
0
40
30
210
-0
220
0
230
1
100
AcDbArc
50
270
51
360
0
LINE
5
117
100
AcDbEntity
8
0
100
AcDbLine
10
180.00000000000003
20
-71.5
30
0
11
-179.99999999999997
21
-71.5
31
0
0
ARC
5
118
100
AcDbEntity
8
0
100
AcDbCircle
10
-179.99999999999997
20
-41.500000000000021
30
0
40
29.999999999999964
210
0
220
0
230
1
100
AcDbArc
50
180
51
270
0
LINE
5
119
100
AcDbEntity
8
0
100
AcDbLine
10
-209.99999999999994
20
-41.500000000000021
30
0
11
-209.99999999999997
21
41.500000000000021
31
0
0
ARC
5
120
100
AcDbEntity
8
0
100
AcDbCircle
10
-179.99999999999997
20
41.500000000000021
30
0
40
30.000000000000018
210
0
220
0
230
1
100
AcDbArc
50
90.000000000000057
51
180
0
LINE
5
121
100
AcDbEntity
8
0
100
AcDbLine
10
-151.76234836116865
20
-11.90601805727923
30
0
11
-151.76234836116865
21
-3.490889899666918
31
0
0
ARC
5
122
100
AcDbEntity
8
0
100
AcDbCircle
10
-159.99999999999997
20
-7.6984539784730721
30
0
40
9.2500000000000178
210
0
220
-0
230
1
100
AcDbArc
50
27.05668542433833
51
153.28157478789058
0
LINE
5
123
100
AcDbEntity
8
0
100
AcDbLine
10
-168.26234836116862
20
-3.5395960151982839
30
0
11
-168.26234836116865
21
-11.857311941747849
31
0
0
ARC
5
124
100
AcDbEntity
8
0
100
AcDbCircle
10
-159.99999999999997
20
-7.6984539784730721
30
0
40
9.2500000000000409
210
0
220
0
230
1
100
AcDbArc
50
206.71842521210922
51
332.9433145756617
0
LWPOLYLINE
5
125
100
AcDbEntity
8
0
100
AcDbPolyline
90
4
70
1
43
0.0
10
-151.76234836116865
20
36.509110100333082
10
-151.76234836116862
20
28.09398194272076
42
-0.61415135499218143
10
-168.26234836116865
20
28.142688058252151
10
-168.26234836116862
20
36.460403984801715
42
-0.61415135499218054
0
CIRCLE
5
126
100
AcDbEntity
8
0
100
AcDbCircle
10
-159.99999999999997
20
55.750000000000028
30
0
40
3.0000000000000004
210
0
220
0
230
1
0
LWPOLYLINE
5
127
100
AcDbEntity
8
0
100
AcDbPolyline
90
4
70
1
43
0.0
10
-60.199999999686746
20
1.5999999999985182
10
-60.199999999688615
20
-1.6000000000015024
10
-61.245001428086397
20
-1.6000000000008916
42
-11.034374107243892
10
-61.245001428086013
20
1.5999999999988157
0
LWPOLYLINE
5
128
100
AcDbEntity
8
0
100
AcDbPolyline
90
4
70
1
43
0.0
10
-111.76234836116863
20
36.509110100333082
10
-111.76234836116862
20
28.09398194272076
42
-0.61415135499218143
10
-128.26234836116865
20
28.142688058252151
10
-128.26234836116862
20
36.460403984801708
42
-0.61415135499218088
0
LWPOLYLINE
5
129
100
AcDbEntity
8
0
100
AcDbPolyline
90
4
70
1
43
0.0
10
-172.10731287473109
20
35.94159865552264
10
-172.10731287473109
20
29.310739280522647
10
-182.10731287473106
20
29.310739280522647
10
-182.10731287473106
20
35.94159865552264
0
LWPOLYLINE
5
130
100
AcDbEntity
8
0
100
AcDbPolyline
90
4
70
1
43
0.0
10
-181.1362385885698
20
-4.5164819162183107
10
-181.1362385885698
20
-11.152224103718311
10
-171.1362385885698
20
-11.152224103718309
10
-171.1362385885698
20
-4.516481916218309
0
LWPOLYLINE
5
131
100
AcDbEntity
8
0
100
AcDbPolyline
90
4
70
1
43
0.0
10
-132.98196811476251
20
35.731501717658858
10
-132.98196811476251
20
29.979548592658869
10
-142.98196811476248
20
29.979548592658869
10
-142.98196811476248
20
35.731501717658858
0
ENDSEC
0
SECTION
2
OBJECTS
0
DICTIONARY
5
C
100
AcDbDictionary
3
ACAD_GROUP
350
D
3
ACAD_MLINESTYLE
350
17
0
DICTIONARY
5
D
100
AcDbDictionary
0
DICTIONARY
5
1A
330
C
100
AcDbDictionary
0
DICTIONARY
5
17
100
AcDbDictionary
0
ENDSEC
0
EOF
